<?xml version="1.0" encoding="UTF-8" standalone="no"?>
<!-- Generator: Adobe Illustrator 19.2.1, SVG Export Plug-In . SVG Version: 6.00 Build 0)  -->

<svg
   xmlns:dc="http://purl.org/dc/elements/1.1/"
   xmlns:cc="http://creativecommons.org/ns#"
   xmlns:rdf="http://www.w3.org/1999/02/22-rdf-syntax-ns#"
   xmlns:svg="http://www.w3.org/2000/svg"
   xmlns="http://www.w3.org/2000/svg"
   xmlns:sodipodi="http://sodipodi.sourceforge.net/DTD/sodipodi-0.dtd"
   xmlns:inkscape="http://www.inkscape.org/namespaces/inkscape"
   version="1.1"
   id="Layer_1"
   x="0px"
   y="0px"
   viewBox="0 0 85.675446 58.091834"
   xml:space="preserve"
   inkscape:version="0.91 r13725"
   sodipodi:docname="3wc_logo_white.svg"
   width="85.675446"
   height="58.091835"><metadata
     id="metadata71"><rdf:RDF><cc:Work
         rdf:about=""><dc:format>image/svg+xml</dc:format><dc:type
           rdf:resource="http://purl.org/dc/dcmitype/StillImage" /><dc:title></dc:title></cc:Work></rdf:RDF></metadata><defs
     id="defs69" /><sodipodi:namedview
     pagecolor="#ffffff"
     bordercolor="#666666"
     borderopacity="1"
     objecttolerance="10"
     gridtolerance="10"
     guidetolerance="10"
     inkscape:pageopacity="0"
     inkscape:pageshadow="2"
     inkscape:window-width="1536"
     inkscape:window-height="801"
     id="namedview67"
     showgrid="false"
     inkscape:zoom="6.1133519"
     inkscape:cx="38.856883"
     inkscape:cy="36.426368"
     inkscape:window-x="-8"
     inkscape:window-y="-8"
     inkscape:window-maximized="1"
     inkscape:current-layer="Layer_1"
     fit-margin-top="0"
     fit-margin-left="0"
     fit-margin-right="0"
     fit-margin-bottom="0" /><style
     type="text/css"
     id="style3">
	.st0{fill:#0088CC;}
	.st1{fill:#D60033;}
</style><g
     id="g5"
     transform="translate(-82.6,-25.608163)"
     style="fill:#ffffff;fill-opacity:1"><path
       class="st0"
       d="m 84.4,48 c 1.4,-2.6 2.1,-3.4 4.1,-5 2,-1.6 4.5,-2.5 7.4,-2.5 1.8,0 3.4,0.3 4.9,0.9 1.5,0.6 3,1.4 3.8,2.4 0.5,0.4 1.1,1.6 1.6,2.5 0.4,0.9 0.6,1.8 0.6,2.6 0,1.4 -0.5,2.9 -1.5,4.5 -1,1.6 -2.6,3.2 -4.9,5 3,1.1 5.2,2.6 6.6,4.4 1.4,1.9 2.1,4 2.1,6.4 0,1.8 -0.3,3.4 -1,5 -0.7,1.6 -1.6,3 -2.9,4.3 -1.6,1.6 -3.7,2.9 -6.3,3.8 -2.5,0.9 -5.3,1.4 -8.3,1.4 -1.4,0 -2.7,-0.1 -3.8,-0.3 -1.1,-0.2 -2,-0.5 -2.5,-0.8 -1.3,-0.8 -1.7,-1.5 -1.7,-2.2 0,-0.6 0.3,-1.2 0.8,-1.6 0.5,-0.4 1.2,-0.7 2,-0.7 0.2,0 0.5,0 0.8,0.1 0.3,0 0.6,0.1 0.9,0.2 0.6,0.2 0.9,0.3 1.4,0.4 0.4,0.2 0.9,0.4 1.5,0.7 1.1,0.6 2.2,0.9 2.7,1 0.5,0.1 0.9,0.1 1.4,0.2 0.4,0 0.9,0.1 1.2,0.1 2.4,0 4.5,-0.6 6.3,-2.2 1.7,-1.6 2.6,-3.5 2.6,-5.8 0,-0.8 -0.1,-1.6 -0.3,-2.4 -0.2,-0.8 -0.5,-1.6 -0.9,-2.4 l 0,0 c -0.3,-0.5 -0.6,-0.9 -1,-1.4 -0.4,-0.4 -0.7,-0.8 -1.1,-1.2 l 0.1,0 c -0.4,-0.3 -1,-0.7 -1.8,-1.1 -0.8,-0.4 -1.3,-0.6 -2.5,-0.9 -0.8,-0.2 -1.5,-0.5 -2.6,-0.6 -1,-0.1 -2,-0.3 -2.9,-0.3 l -3.3,0 0,-1.9 c 1.9,-0.4 4.4,-1 6.2,-1.7 l 0,0 c 2,-1 2.1,-1 3.7,-2.2 l 0,0 c 0.9,-1 2,-2.1 2.3,-2.9 0.3,-0.8 0.4,-1.6 0.4,-2.4 0,-2.1 -0.2,-3.5 -1.8,-4.8 -1.5,-1.3 -3.3,-1.7 -5.5,-1.9 -2.6,-0.2 -5.3,1.1 -7.7,3.7 L 84.4,48 Z"
       id="path7"
       inkscape:connector-curvature="0"
       style="fill:#ffffff;fill-opacity:1" /></g><g
     id="g9"
     transform="translate(-82.6,-25.608163)"
     style="fill:#ffffff;fill-opacity:1"><path
       class="st0"
       d="m 155.4,74.9 -0.7,4.5 c -1.1,0.6 -2.3,1 -3.6,1.4 -1.4,0.4 -2.8,0.5 -4.3,0.5 -1.1,0 -2.1,-0.1 -3.2,-0.4 -1.1,-0.3 -2.1,-0.7 -3.1,-1.2 -1,-0.5 -2,-1.2 -2.9,-1.9 -0.9,-0.8 -1.7,-1.6 -2.3,-2.6 -0.7,-1 -1.2,-2.1 -1.6,-3.3 -0.4,-1.2 -0.6,-2.5 -0.6,-3.9 0,-1.3 0.2,-2.5 0.5,-3.7 0.4,-1.1 0.8,-2.2 1.5,-3.2 0.6,-1 1.4,-1.8 2.2,-2.6 0.9,-0.8 1.8,-1.4 2.8,-2 1,-0.5 2.1,-1 3.2,-1.2 1.1,-0.3 2.2,-0.4 3.3,-0.4 0.6,0 1.2,0.1 2,0.2 0.8,0.1 1.5,0.3 2.3,0.4 0.7,0.2 1.5,0.4 2.1,0.7 0.7,0.3 1.2,0.5 1.6,0.8 l 0.4,3.8 c 0,0.2 0,0.4 0.1,0.6 0.1,0.2 0,0.4 0.1,0.5 0,0.2 -0.3,0.3 -0.8,0.3 -0.1,-0.1 -0.1,-0.2 -0.2,-0.4 -0.1,-0.2 -0.2,-0.4 -0.2,-0.6 -0.1,-0.2 -0.2,-0.4 -0.3,-0.6 -0.1,-0.2 -0.2,-0.3 -0.3,-0.5 -0.3,-0.6 -0.6,-1.1 -1.1,-1.6 -0.5,-0.5 -1,-0.9 -1.6,-1.2 -0.6,-0.3 -1.2,-0.6 -1.9,-0.8 -0.7,-0.2 -1.4,-0.3 -2,-0.3 -1.6,0 -3,0.3 -4.2,1 -1.2,0.7 -2.3,1.5 -3.2,2.6 -0.9,1.1 -1.5,2.4 -2,3.8 -0.5,1.5 -0.7,3 -0.7,4.6 0,1 0.1,2 0.4,2.9 0.2,0.9 0.6,1.8 1,2.7 0.4,0.8 0.9,1.6 1.5,2.4 0.6,0.7 1.3,1.3 2,1.9 0.7,0.5 1.5,0.9 2.4,1.2 0.9,0.3 1.8,0.4 2.7,0.4 0.6,0 1.1,-0.1 1.7,-0.1 0.6,-0.1 1.1,-0.3 1.7,-0.5 0.7,-0.2 1.2,-0.5 1.7,-0.8 0.4,-0.3 0.8,-0.6 1.1,-0.9 0.3,-0.4 0.6,-0.8 0.8,-1.3 0.2,-0.5 0.4,-1.2 0.6,-2 0,-0.1 0.2,-0.2 0.5,-0.2 0.4,0 0.6,0.1 0.6,0.4 0,0.1 0,0.1 0,0.2 0,0.2 0,0.3 0,0.4 z"
       id="path11"
       inkscape:connector-curvature="0"
       style="fill:#ffffff;fill-opacity:1" /></g><g
     id="g13"
     transform="translate(-82.6,-25.608163)"
     style="fill:#ffffff;fill-opacity:1"><path
       class="st1"
       d="m 138.7,56.6 c -0.5,0.1 -0.9,0.3 -1.2,0.4 -0.3,0.1 -0.6,0.3 -0.8,0.6 -0.2,0.2 -0.5,0.6 -0.7,1 -0.2,0.4 -0.5,1.1 -0.8,1.9 l -6.9,18 c -0.1,0.2 -0.1,0.5 -0.3,0.8 -0.1,0.4 -0.2,0.8 -0.3,1.2 -0.1,0.4 -0.2,0.8 -0.4,1.3 -0.2,0.5 -0.2,0.8 -0.3,1 l -1.4,0 c -0.1,-0.2 -0.2,-0.5 -0.3,-0.9 -0.1,-0.4 -0.3,-0.7 -0.4,-1.1 -0.1,-0.4 -0.2,-0.7 -0.4,-1 -0.1,-0.3 -0.2,-0.5 -0.3,-0.7 l -3.3,-7.4 -4.6,11 -1.3,0 c -0.4,-1.1 -0.7,-2.1 -1.1,-3.1 -0.4,-1 -0.7,-1.9 -1.1,-2.9 -0.4,-0.9 -0.8,-1.9 -1.2,-2.8 -0.4,-1 -0.8,-2 -1.3,-3 -0.1,-0.3 -0.3,-0.7 -0.6,-1.3 -0.3,-0.6 -0.6,-1.3 -0.9,-2.1 -0.4,-0.8 -0.7,-1.6 -1.1,-2.5 -0.4,-0.9 -0.8,-1.7 -1.1,-2.5 -0.3,-0.8 -0.7,-1.5 -1,-2.1 -0.3,-0.6 -0.5,-1.1 -0.7,-1.4 l 0,-0.1 c -0.2,-0.4 -0.4,-0.7 -0.5,-1 -0.1,-0.3 -0.3,-0.5 -0.5,-0.6 -0.2,-0.1 -0.4,-0.3 -0.7,-0.4 -0.3,-0.1 -0.7,-0.2 -1.1,-0.2 -0.1,0 -0.1,-0.1 -0.2,-0.1 0,-0.1 -0.1,-0.2 -0.1,-0.5 0,-0.4 0.2,-0.7 0.5,-0.7 0.2,0 0.5,0 0.9,0 0.4,0 0.9,0 1.3,0.1 0.4,0.1 0.9,0 1.3,0.1 0.4,0 0.7,0 0.9,0 0.2,0 0.4,0 0.7,0 0.3,0 0.6,0 1,-0.1 0.4,0 0.7,0 1,-0.1 0.3,0 0.6,0 0.8,0 0.2,0 0.3,0.1 0.3,0.4 l 0,0.5 c 0,0.3 -0.1,0.4 -0.3,0.4 -0.4,0 -0.7,0 -0.9,0.1 -0.2,0.1 -0.4,0.1 -0.5,0.2 -0.1,0.1 -0.2,0.2 -0.3,0.3 -0.1,0.1 -0.1,0.2 -0.1,0.4 0,0.2 0,0.3 0.1,0.5 0.1,0.2 0.2,0.5 0.3,0.8 l 7.9,19 3.5,-7.9 -5,-11.4 c -0.3,-0.6 -0.6,-1 -1,-1.4 -0.4,-0.3 -0.9,-0.5 -1.3,-0.6 -0.3,0 -0.5,-0.1 -0.6,-0.1 -0.1,0 -0.1,-0.2 -0.1,-0.3 0,-0.5 0.1,-0.8 0.3,-0.8 0.8,0 1.6,0 2.4,0.1 0.8,0.1 1.5,0.1 2.2,0.1 0.5,0 1.1,0 1.7,-0.1 0.6,-0.1 1.3,-0.1 1.9,-0.1 0.3,0 0.4,0.2 0.4,0.6 0,0.5 -0.1,0.7 -0.3,0.7 -0.7,0 -1.2,0.1 -1.5,0.2 -0.3,0.2 -0.4,0.4 -0.4,0.6 0,0.2 0.1,0.6 0.3,1.1 0.1,0.5 0.3,0.9 0.4,1.3 0.2,0.4 0.3,0.8 0.5,1.3 0.2,0.4 0.4,0.9 0.6,1.5 0.2,0.6 0.5,1.2 0.9,2 l 0.6,1.4 2.6,-6.1 c 0.1,-0.2 0.1,-0.4 0.2,-0.6 0.1,-0.2 0.1,-0.4 0.2,-0.7 0.1,-0.2 0.1,-0.4 0.2,-0.6 0,-0.2 0.1,-0.3 0.1,-0.4 0,-0.4 -0.2,-0.7 -0.5,-0.9 -0.4,-0.2 -0.9,-0.2 -1.5,-0.2 0,-0.1 0,-0.3 -0.1,-0.5 0,-0.2 0,-0.3 0,-0.5 0,-0.2 0.1,-0.3 0.3,-0.3 0.2,0 0.4,0 0.7,0 0.3,0 0.6,0 1,0.1 0.3,0 0.7,0 1,0.1 0.3,0 0.5,0 0.7,0 0.1,0 0.3,0 0.6,0 0.3,0 0.5,0 0.8,-0.1 0.3,0 0.5,0 0.8,-0.1 0.3,0 0.4,0 0.6,0 0.2,0 0.3,0.1 0.3,0.3 0,0.1 0,0.3 0,0.5 0,0.2 -0.1,0.3 -0.1,0.4 l -0.5,0 c -0.9,0 -1.7,0.6 -2.2,1.8 l -4.2,9.5 0,0.1 4.1,9.4 6.9,-18.4 c 0.2,-0.6 0.3,-1 0.3,-1.3 0,-0.3 -0.2,-0.6 -0.5,-0.8 -0.4,-0.2 -0.8,-0.3 -1.4,-0.3 -0.1,0 -0.2,-0.1 -0.2,-0.3 l 0,-0.7 c 0,-0.2 0,-0.3 0.1,-0.3 0.7,0 1.4,0 2.1,0.1 0.7,0.1 1.4,0.1 2,0.1 0.6,0 1.1,0 1.5,-0.1 0.4,-0.1 0.6,-0.1 0.9,-0.1 l 0.1,0 c 0.2,0 0.2,0.1 0.2,0.3 l 0,0.6 c -0.2,0.2 -0.3,0.3 -0.6,0.4 z"
       id="path15"
       inkscape:connector-curvature="0"
       style="fill:#ffffff;fill-opacity:1" /></g><path
     class="st1"
     d="m 65.2,27.991837 -3.2,0 c 0,0 11.2,-12.3 7.4,-16.1 -5.4,-5.4000003 -34.9,16.1 -34.9,16.1 0,0 -0.8,0.1 -2.4,0.1 13.6,-9.8 35.8,-24.4000003 41.1,-19.0000003 6.3,6.9000003 -8,18.9000003 -8,18.9000003 z"
     id="path17"
     inkscape:connector-curvature="0"
     style="fill:#ffffff;fill-opacity:1" /><path
     class="st1"
     d="m 72.2,27.991837 -5.8,0 c 0,0 17.8,-16.8 10.4,-22.4000003 -14,-8.8 -51.3,22.4000003 -51.3,22.4000003 0,0 0.3,0 -2.2,0 11.2,-9.6 44.8,-34.9000003 59.9,-26.2000003 9.4,7.3 -11,26.2000003 -11,26.2000003 z"
     id="path19"
     inkscape:connector-curvature="0"
     style="fill:#ffffff;fill-opacity:1" /><path
     class="st0"
     d="m 67.5,27.991837 c 0,0 16.8,-16.7 9.2,-21.6000003 -11.8,-7.6 -46.2,19.1000003 -48.9,21.7000003 0,0 1.6,0 2.4,0 8.2,-6.1 30.9,-24.4000003 41.4,-20.1000003 C 80,11.391837 64.4,28.091837 64.4,28.091837 l 3.1,0 z"
     id="path21"
     inkscape:connector-curvature="0"
     style="fill:#ffffff;fill-opacity:1" /></svg>